<svg width="64" height="64" viewBox="0 0 64 64" fill="none" xmlns="http://www.w3.org/2000/svg">
<g clip-path="url(#clip0_188_206)">
<path d="M26.08 25.4222C31.971 25.4222 36.7467 20.6466 36.7467 14.7555C36.7467 8.8645 31.971 4.08887 26.08 4.08887C20.189 4.08887 15.4133 8.8645 15.4133 14.7555C15.4133 20.6466 20.189 25.4222 26.08 25.4222Z" fill="black"/>
<path d="M29.2268 56.5689C28.6393 55.9879 28.2559 55.232 28.1341 54.4147C28.0123 53.5975 28.1587 52.7627 28.5512 52.0356L29.4934 50.2578L27.5557 49.6711C26.7655 49.4238 26.0775 48.9255 25.5963 48.2517C25.115 47.5779 24.8667 46.7655 24.889 45.9378V42.2934C24.8875 41.4693 25.1511 40.6666 25.641 40.0039C26.1308 39.3413 26.8208 38.8537 27.609 38.6134L29.5468 38.0267L28.6223 36.2489C28.2413 35.5317 28.0963 34.7126 28.208 33.9082C28.3197 33.1038 28.6825 32.3551 29.2446 31.7689C27.8769 31.5896 26.4995 31.4946 25.1201 31.4845C21.046 31.3886 17.0009 32.1929 13.2734 33.84C9.5459 35.4871 6.22776 37.9365 3.55566 41.0134V54.7911C3.55566 55.2626 3.74297 55.7148 4.07636 56.0482C4.40976 56.3816 4.86195 56.5689 5.33344 56.5689H29.2268Z" fill="black"/>
<path d="M59.9111 41.7067L56.3556 40.64C56.1092 39.762 55.7632 38.915 55.3244 38.1155L57.1022 34.8089C57.1709 34.6861 57.196 34.5438 57.1734 34.4049C57.1508 34.2661 57.0819 34.139 56.9778 34.0444L54.4 31.4489C54.3007 31.3523 54.1741 31.2885 54.0374 31.2662C53.9006 31.244 53.7604 31.2643 53.6356 31.3244L50.3467 33.1022C49.5371 32.6624 48.6854 32.3051 47.8044 32.0355L46.72 28.48C46.6723 28.3489 46.5851 28.2358 46.4705 28.1562C46.3559 28.0766 46.2195 28.0345 46.08 28.0355H42.3822C42.2436 28.0394 42.1095 28.0858 41.9982 28.1685C41.8869 28.2512 41.8037 28.3662 41.76 28.4978L40.6933 32.0533C39.7953 32.3146 38.9303 32.6785 38.1156 33.1378L34.8978 31.36C34.7727 31.2935 34.6298 31.268 34.4895 31.2872C34.3491 31.3063 34.2183 31.3691 34.1156 31.4667L31.5022 34.0267C31.3993 34.1258 31.3315 34.2558 31.3091 34.3969C31.2866 34.5381 31.3107 34.6827 31.3778 34.8089L33.1556 38.0444C32.6793 38.8474 32.2918 39.6998 32 40.5867L28.4444 41.6711C28.3099 41.71 28.1919 41.7919 28.1084 41.9043C28.0249 42.0167 27.9806 42.1533 27.9822 42.2933V45.9378C27.9806 46.0778 28.0249 46.2144 28.1084 46.3268C28.1919 46.4392 28.3099 46.5211 28.4444 46.56L32 47.6444C32.2665 48.5151 32.624 49.3553 33.0667 50.1511L31.2889 53.5289C31.2218 53.6551 31.1977 53.7997 31.2202 53.9408C31.2426 54.0819 31.3104 54.2119 31.4133 54.3111L34.0622 56.8889C34.165 56.9864 34.2958 57.0492 34.4361 57.0684C34.5765 57.0875 34.7193 57.062 34.8444 56.9955L38.1689 55.2178C38.96 55.6433 39.7944 55.983 40.6578 56.2311L41.7244 59.8755C41.7692 60.01 41.855 60.1269 41.9699 60.2099C42.0847 60.2928 42.2228 60.3376 42.3644 60.3378H46.0089C46.1475 60.3339 46.2816 60.2875 46.3929 60.2048C46.5042 60.1221 46.5874 60.0071 46.6311 59.8755L47.6978 56.2311C48.5509 55.9861 49.3738 55.6462 50.1511 55.2178L53.5111 56.9955C53.6362 57.062 53.779 57.0875 53.9194 57.0684C54.0598 57.0492 54.1906 56.9864 54.2933 56.8889L56.8889 54.3111C56.9864 54.2084 57.0492 54.0776 57.0684 53.9372C57.0875 53.7968 57.062 53.654 56.9956 53.5289L55.2178 50.1867C55.643 49.4078 55.9828 48.5853 56.2311 47.7333L59.7867 46.6489C59.9202 46.6059 60.0376 46.5234 60.1233 46.4123C60.209 46.3012 60.259 46.1668 60.2667 46.0267V42.3467C60.271 42.2178 60.2402 42.0901 60.1776 41.9774C60.1149 41.8646 60.0228 41.7711 59.9111 41.7067ZM44.2133 50.0978C43.0382 50.1013 41.8884 49.756 40.9096 49.1057C39.9309 48.4554 39.167 47.5293 38.7149 46.4446C38.2627 45.3599 38.1426 44.1655 38.3697 43.0125C38.5968 41.8595 39.1609 40.7999 39.9906 39.9677C40.8203 39.1355 41.8783 38.5682 43.0306 38.3376C44.1829 38.1071 45.3777 38.2236 46.4637 38.6725C47.5497 39.1214 48.4781 39.8824 49.1314 40.8593C49.7846 41.8361 50.1333 42.9848 50.1333 44.16C50.1333 45.7317 49.5102 47.2393 48.4005 48.3524C47.2908 49.4654 45.785 50.0931 44.2133 50.0978Z" fill="black"/>
</g>
<defs>
<clipPath id="clip0_188_206">
<rect width="64" height="64" fill="white"/>
</clipPath>
</defs>
</svg>
