<svg width="64" height="64" viewBox="0 0 64 64" fill="none" xmlns="http://www.w3.org/2000/svg">
<path d="M42.6667 45.3333V50.6666H5.33337V45.3333C5.33337 45.3333 5.33337 34.6666 24 34.6666C42.6667 34.6666 42.6667 45.3333 42.6667 45.3333ZM33.3334 20C33.3334 18.154 32.786 16.3495 31.7604 14.8147C30.7349 13.2798 29.2772 12.0835 27.5718 11.3771C25.8663 10.6707 23.9897 10.4859 22.1792 10.846C20.3687 11.2061 18.7057 12.095 17.4004 13.4003C16.0951 14.7056 15.2062 16.3686 14.846 18.1791C14.4859 19.9896 14.6707 21.8662 15.3772 23.5717C16.0836 25.2771 17.2799 26.7348 18.8147 27.7604C20.3496 28.7859 22.1541 29.3333 24 29.3333C26.4754 29.3333 28.8494 28.35 30.5997 26.5996C32.35 24.8493 33.3334 22.4753 33.3334 20ZM42.5067 34.6666C44.146 35.9353 45.4874 37.5478 46.4365 39.3907C47.3856 41.2335 47.9193 43.262 48 45.3333V50.6666H58.6667V45.3333C58.6667 45.3333 58.6667 35.6533 42.5067 34.6666ZM40 10.6666C38.1645 10.6564 36.3694 11.2052 34.8534 12.24C36.4732 14.5033 37.3442 17.2167 37.3442 20C37.3442 22.7832 36.4732 25.4967 34.8534 27.76C36.3694 28.7948 38.1645 29.3435 40 29.3333C42.4754 29.3333 44.8494 28.35 46.5997 26.5996C48.35 24.8493 49.3334 22.4753 49.3334 20C49.3334 17.5246 48.35 15.1507 46.5997 13.4003C44.8494 11.65 42.4754 10.6666 40 10.6666Z" fill="black"/>
</svg>
