<svg width="64" height="64" viewBox="0 0 64 64" fill="none" xmlns="http://www.w3.org/2000/svg">
<path d="M19.9333 56C15.8889 56 12.4445 54.5778 9.60001 51.7333C6.75557 48.8889 5.33334 45.4444 5.33334 41.4C5.33334 37.5778 6.61157 34.2773 9.16801 31.4986C11.7245 28.72 14.9129 27.176 18.7333 26.8666L8.00001 5.33331H26.6667L32 16L37.3333 5.33331H56L45.3333 26.7333C49.1111 27.0889 52.2782 28.656 54.8347 31.4346C57.3911 34.2133 58.6685 37.5129 58.6667 41.3333C58.6667 45.4222 57.2444 48.8889 54.4 51.7333C51.5556 54.5778 48.0889 56 44 56C43.6 56 43.1885 55.9884 42.7653 55.9653C42.3422 55.9422 41.9316 55.8871 41.5333 55.8C43.9778 54.2 45.8889 52.1226 47.2667 49.568C48.6445 47.0133 49.3333 44.2684 49.3333 41.3333C49.3333 36.4889 47.6551 32.3893 44.2987 29.0346C40.9422 25.68 36.8427 24.0018 32 24C27.1556 24 23.056 25.6782 19.7013 29.0346C16.3467 32.3911 14.6685 36.4906 14.6667 41.3333C14.6667 44.3555 15.2889 47.2 16.5333 49.8666C17.7778 52.5333 19.7333 54.5111 22.4 55.8C22 55.8889 21.5885 55.9449 21.1653 55.968C20.7422 55.9911 20.3298 56.0018 19.9333 56ZM32 53.3333C28.6667 53.3333 25.8329 52.1662 23.4987 49.832C21.1645 47.4978 19.9982 44.6649 20 41.3333C20 38 21.1671 35.1662 23.5013 32.832C25.8356 30.4978 28.6685 29.3315 32 29.3333C35.3333 29.3333 38.1671 30.5004 40.5013 32.8346C42.8356 35.1689 44.0018 38.0018 44 41.3333C44 44.6666 42.8329 47.5004 40.4987 49.8346C38.1645 52.1689 35.3316 53.3351 32 53.3333ZM27.0667 48.6666L32 44.9333L36.9333 48.6666L35.0667 42.6L40 39.0666H33.9333L32 32.6666L30.0667 39.0666H24L28.9333 42.6L27.0667 48.6666Z" fill="#061626"/>
</svg>
