<svg width="80" height="80" viewBox="0 0 80 80" fill="none" xmlns="http://www.w3.org/2000/svg">
<path d="M54.9955 0.193165C64.0943 1.27827 72.3476 6.86453 76.5347 14.7416C82.5737 26.0346 80.601 39.297 71.5424 48.2189C68.1606 51.5144 64.6982 53.6444 60.2293 55.1314L57.0085 56.2165L42.5148 56.3773L28.0211 56.4979L16.3457 68.0723C8.53517 75.8689 4.30784 79.7672 3.5429 79.928C2.89874 80.0888 1.97276 79.9682 1.32859 79.6869C0.402607 79.2448 0.241562 78.8831 0.120781 77.1952L2.38419e-06 75.2259L11.6755 63.5309L23.3509 51.8359L23.512 37.5689C23.673 21.7746 23.7535 21.1316 26.451 15.6257C31.564 5.17659 43.4005 -1.21345 54.9955 0.193165ZM28.2224 44.8029V51.635H35.1472H42.1122L35.268 44.8029C31.5238 41.0251 28.3835 37.9708 28.3432 37.9708C28.2627 37.9708 28.2224 41.0251 28.2224 44.8029Z" fill="#011627"/>
<path d="M76.0113 57.2213C78.91 58.5475 80.601 62.1243 79.7958 65.2189C79.2321 67.3087 78.0243 68.7555 76.0918 69.72C71.5021 72.0912 66.1073 68.7153 66.067 63.5309C66.067 58.3064 71.1801 55.0511 76.0113 57.2213Z" fill="#F6F7F8"/>
</svg>
