<svg width="48" height="48" viewBox="0 0 48 48" fill="none" xmlns="http://www.w3.org/2000/svg">
<path d="M32.9973 0.115902C38.4566 0.766962 43.4086 4.11872 45.9208 8.84494C49.5442 15.6208 48.3606 23.5782 42.9255 28.9314C40.8963 30.9087 38.8189 32.1867 36.1376 33.0789L34.2051 33.7299L25.5089 33.8264L16.8127 33.8987L9.80739 40.8434C5.1211 45.5213 2.5847 47.8603 2.12574 47.9568C1.73924 48.0533 1.18365 47.9809 0.797153 47.8121C0.241562 47.5469 0.144935 47.3299 0.0724668 46.3171L-4.17233e-07 45.1355L7.00528 38.1185L14.0106 31.1016L14.1072 22.5413C14.2038 13.0648 14.2521 12.679 15.8706 9.37543C18.9384 3.10596 26.0403 -0.728066 32.9973 0.115902ZM16.9335 26.8817V30.981H21.0883H25.2673L21.1608 26.8817C18.9143 24.6151 17.0301 22.7825 17.0059 22.7825C16.9576 22.7825 16.9335 24.6151 16.9335 26.8817Z" fill="#011627"/>
<path d="M45.6068 34.3328C47.346 35.1285 48.3606 37.2746 47.8775 39.1313C47.5393 40.3852 46.8146 41.2533 45.6551 41.832C42.9013 43.2547 39.6644 41.2292 39.6402 38.1186C39.6402 34.9838 42.708 33.0306 45.6068 34.3328Z" fill="#F6F7F8"/>
</svg>
