<svg width="64" height="64" viewBox="0 0 64 64" fill="none" xmlns="http://www.w3.org/2000/svg">
<path d="M32 14.6667C34.4754 14.6667 36.8493 15.65 38.5997 17.4003C40.35 19.1507 41.3333 21.5246 41.3333 24C41.3333 26.4753 40.35 28.8493 38.5997 30.5997C36.8493 32.35 34.4754 33.3333 32 33.3333C29.5246 33.3333 27.1507 32.35 25.4003 30.5997C23.65 28.8493 22.6667 26.4753 22.6667 24C22.6667 21.5246 23.65 19.1507 25.4003 17.4003C27.1507 15.65 29.5246 14.6667 32 14.6667ZM13.3333 21.3333C14.8267 21.3333 16.2133 21.7333 17.4133 22.4533C17.0133 26.2667 18.1333 30.0533 20.4267 33.0133C19.0933 35.5733 16.4267 37.3333 13.3333 37.3333C11.2116 37.3333 9.17677 36.4905 7.67648 34.9902C6.17619 33.4899 5.33333 31.4551 5.33333 29.3333C5.33333 27.2116 6.17619 25.1768 7.67648 23.6765C9.17677 22.1762 11.2116 21.3333 13.3333 21.3333ZM50.6667 21.3333C52.7884 21.3333 54.8232 22.1762 56.3235 23.6765C57.8238 25.1768 58.6667 27.2116 58.6667 29.3333C58.6667 31.4551 57.8238 33.4899 56.3235 34.9902C54.8232 36.4905 52.7884 37.3333 50.6667 37.3333C47.5733 37.3333 44.9067 35.5733 43.5733 33.0133C45.8983 30.0118 46.9775 26.2298 46.5867 22.4533C47.7867 21.7333 49.1733 21.3333 50.6667 21.3333ZM14.6667 48.6667C14.6667 43.1467 22.4267 38.6667 32 38.6667C41.5733 38.6667 49.3333 43.1467 49.3333 48.6667V53.3333H14.6667V48.6667ZM0 53.3333V49.3333C0 45.6267 5.04 42.5067 11.8667 41.6C10.2933 43.4133 9.33333 45.92 9.33333 48.6667V53.3333H0ZM64 53.3333H54.6667V48.6667C54.6667 45.92 53.7067 43.4133 52.1333 41.6C58.96 42.5067 64 45.6267 64 49.3333V53.3333Z" fill="#061626"/>
</svg>
