<svg width="124" height="125" viewBox="0 0 124 125" fill="none" xmlns="http://www.w3.org/2000/svg">
<path d="M85.243 0.301738C99.3462 1.99671 112.139 10.7227 118.629 23.0269C127.989 40.6672 124.932 61.3835 110.891 75.3199C105.649 80.4676 100.282 83.7948 93.3554 86.1175L88.3632 87.8125L65.898 88.0636L43.4327 88.2519L25.3358 106.332C13.2295 118.51 6.67715 124.6 5.49149 124.851C4.49304 125.102 3.05777 124.914 2.05931 124.474C0.624035 123.784 0.374415 123.219 0.187205 120.582L-1.84774e-06 117.506L18.097 99.2379L36.194 80.9698L36.4436 58.6841C36.6932 34.0128 36.818 33.0084 40.999 24.408C48.9242 8.08605 67.2708 -1.89545 85.243 0.301738ZM43.7448 69.9839V80.6559H54.4781H65.2739L54.6653 69.9839C48.8618 64.0829 43.9944 59.3119 43.932 59.3119C43.8072 59.3119 43.7448 64.0829 43.7448 69.9839Z" fill="#011627"/>
<path d="M117.818 89.3819C122.311 91.4536 124.932 97.0407 123.683 101.874C122.81 105.139 120.938 107.399 117.942 108.905C110.828 112.609 102.466 107.336 102.404 99.2379C102.404 91.0769 110.329 85.992 117.818 89.3819Z" fill="#F6F7F8"/>
</svg>
