<svg width="64" height="64" viewBox="0 0 64 64" fill="none" xmlns="http://www.w3.org/2000/svg">
<path d="M32 10.6666C34.8289 10.6666 37.542 11.7904 39.5424 13.7908C41.5428 15.7912 42.6666 18.5043 42.6666 21.3333C42.6666 24.1623 41.5428 26.8754 39.5424 28.8758C37.542 30.8762 34.8289 32 32 32C29.171 32 26.4579 30.8762 24.4575 28.8758C22.4571 26.8754 21.3333 24.1623 21.3333 21.3333C21.3333 18.5043 22.4571 15.7912 24.4575 13.7908C26.4579 11.7904 29.171 10.6666 32 10.6666ZM32 37.3333C43.7866 37.3333 53.3333 42.1066 53.3333 48V53.3333H10.6666V48C10.6666 42.1066 20.2133 37.3333 32 37.3333Z" fill="black"/>
</svg>
