<svg width="51" height="51" viewBox="0 0 51 51" fill="none" xmlns="http://www.w3.org/2000/svg">
<rect width="51" height="51" fill="white"/>
<path d="M32 34.998V30.998C32.9 30.552 35.474 27.488 35.744 25.094C36.452 25.04 37.564 24.39 37.892 21.824C38.068 20.446 37.368 19.672 36.944 19.428C36.944 19.428 38 17.422 38 15C38 10.144 36.094 6 32 6C32 6 30.578 3 26 3C17.516 3 14 8.442 14 15C14 17.208 15.056 19.428 15.056 19.428C14.632 19.672 13.932 20.448 14.108 21.824C14.436 24.39 15.548 25.04 16.256 25.094C16.526 27.488 19.1 30.552 20 30.998V34.998C18 40.998 2 36.998 2 50.998H50C50 36.998 34 40.998 32 34.998Z" fill="black"/>
</svg>
