<svg width="56" height="56" viewBox="0 0 56 56" fill="none" xmlns="http://www.w3.org/2000/svg">
<g clip-path="url(#clip0_1_31)">
<path d="M17.4211 0.135634C11.0818 0.897515 5.33153 4.81979 2.41433 10.3505C-1.79317 18.2797 -0.418721 27.5916 5.89253 33.8559C8.24873 36.1698 10.661 37.6653 13.7746 38.7094L16.0186 39.4713L26.1166 39.5841L36.2146 39.6688L44.3491 47.7955C49.7908 53.2698 52.736 56.0069 53.269 56.1198C53.7178 56.2327 54.3629 56.148 54.8117 55.9505C55.4569 55.6401 55.5691 55.3861 55.6532 54.201L55.7374 52.8183L47.6029 44.6069L39.4684 36.3955L39.3562 26.3782C39.244 15.2886 39.1879 14.8371 37.3085 10.9713C33.7462 3.63464 25.4995 -0.85199 17.4211 0.135634ZM36.0743 31.4574V36.2544H31.2497H26.3971L31.1656 31.4574C33.7742 28.8049 35.9621 26.6604 35.9902 26.6604C36.0463 26.6604 36.0743 28.8049 36.0743 31.4574Z" fill="#061626"/>
<path d="M2.77901 40.1767C0.759412 41.1079 -0.418688 43.6193 0.142312 45.7921C0.535012 47.2594 1.37651 48.2752 2.72291 48.9525C5.92061 50.6173 9.67931 48.247 9.70736 44.6069C9.70736 40.9386 6.14501 38.653 2.77901 40.1767Z" fill="#061626"/>
</g>
<defs>
<clipPath id="clip0_1_31">
<rect width="56" height="56" fill="white"/>
</clipPath>
</defs>
</svg>
