<svg width="561" height="57" viewBox="0 0 561 57" fill="none" xmlns="http://www.w3.org/2000/svg">
<g clip-path="url(#clip0_1_20)">
<path d="M17.8118 0.564345C11.4725 1.32623 5.72221 5.2485 2.80501 10.7792C-1.40248 18.7084 -0.0280352 28.0203 6.28321 34.2846C8.63941 36.5985 11.0517 38.094 14.1653 39.1381L16.4093 39.9L26.5073 40.0129L36.6053 40.0975L44.7398 48.2242C50.1815 53.6985 53.1267 56.4356 53.6597 56.5485C54.1085 56.6614 54.7536 56.5767 55.2024 56.3792C55.8476 56.0688 55.9598 55.8148 56.0439 54.6297L56.1281 53.247L47.9936 45.0356L39.8591 36.8242L39.7469 26.8069C39.6347 15.7173 39.5786 15.2658 37.6992 11.4C34.1369 4.06335 25.8902 -0.423279 17.8118 0.564345ZM36.465 31.8861V36.6832H31.6404H26.7878L31.5563 31.8861C34.1649 29.2337 36.3528 27.0891 36.3809 27.0891C36.437 27.0891 36.465 29.2337 36.465 31.8861Z" fill="#061626"/>
<path d="M70.7141 1.01584C69.4238 2.65248 69.4238 2.73713 69.4238 28.5C69.4238 54.2629 69.4238 54.3475 70.7141 55.9842C71.808 57.395 73.0983 56.7743 73.9118 54.4886C74.5569 52.6545 74.5569 4.34555 73.9118 2.51139C73.0983 0.225744 71.808 -0.395048 70.7141 1.01584Z" fill="#061626"/>
<path d="M95.37 26.6658V53.0213L91.5271 53.1059L87.6562 53.1906V54.8837V56.5767H118.511H149.338L152.171 50.1431L154.976 43.7376H168.945H182.914L183.475 45.0639C183.784 45.8257 185.074 48.7322 186.308 51.5822L188.552 56.7178L374.58 56.6614L560.579 56.5767V54.8837V53.1906L556.792 53.0495C554.492 52.9648 553.146 52.8238 553.398 52.6545C554.016 52.2594 554.829 50.1713 554.829 48.8733C554.857 44.6124 550.369 41.6777 546.554 43.4272C545.348 43.9634 543.749 45.6282 543.3 46.7569C542.796 48.0832 542.992 50.3406 543.749 51.7515L544.422 53.0495H522.01H499.57V46.5594V40.0693H506.246C516.176 40.0693 520.243 39.4203 524.759 37.1911C530.706 34.2564 533.539 28.9233 533.567 20.599C533.595 15.9149 533.09 13.4035 531.519 10.2149C528.939 4.9099 524.226 2.0599 516.064 0.818317C514.493 0.564357 509.921 0.451485 501.955 0.451485L490.174 0.423267L490.09 26.7505L490.033 53.0495H478.14H466.247L468.687 50.5663C471.492 47.7446 473.007 45.1203 474.157 41.0851C475.307 37.1347 475.476 33.6639 475.391 16.3663L475.307 0.423267L470.623 0.338614L465.939 0.282178L465.826 18.1158C465.714 37.8119 465.77 37.2757 463.891 41.0287C462.853 43.1168 460.469 45.6564 458.674 46.6441C455.869 48.1678 451.156 48.704 447.818 47.8292C443.246 46.6158 439.796 43.0322 438.225 37.8119C437.804 36.4574 437.72 34.0307 437.58 18.3416L437.44 0.423267L432.727 0.338614L428.015 0.282178L428.127 18.6802C428.211 34.5668 428.295 37.3886 428.688 39.0817C430.035 44.7535 432.307 48.704 436.149 52.0054L437.412 53.0495H427.117H416.823V50.3688V47.6881H401.395H385.968V40.2104V32.7327H399.292H412.615V28.5V24.2673H399.292H385.968V16.7896V9.31188H400.834H415.701V4.79703V0.282178L396.15 0.338614L376.571 0.423267L376.487 26.7223L376.431 53.0495H371.382H366.333V50.3688V47.6881H353.57H340.807L340.751 24.0416L340.667 0.423267L335.983 0.338614L331.27 0.282178V26.6658V53.0495H318.311H305.324L306.867 52.1465C311.355 49.5787 314.469 46.2208 316.544 41.6495C319.966 34.2 319.966 22.7718 316.516 15.2941C313.29 8.26782 307.063 3.49901 298.536 1.55198C294.357 0.592574 288.27 0.225743 277.695 0.338614L268.859 0.423267L268.775 26.7223L268.719 53.0495H255.956C248.944 53.0495 243.193 52.9931 243.193 52.9366C243.193 52.8802 244.035 52.3441 245.073 51.7515C248.972 49.4376 252.646 45.2049 254.385 40.9723C257.387 33.6639 257.443 23.7876 254.498 16.4228C251.777 9.50941 245.858 4.34554 238.229 2.11634C233.292 0.677228 231.553 0.507921 218.594 0.366832L206.448 0.225743V26.6376V53.0495H201.736H196.995L185.495 26.7223L173.966 0.423267L168.945 0.338614L163.952 0.282178L152.424 26.5812L140.895 52.9084L122.887 52.9931L104.907 53.0495V46.5876V40.1257L113.126 39.9847C121.961 39.8436 124.205 39.5614 128.245 38.0094C133.77 35.8931 137.277 31.6604 138.455 25.7064C139.1 22.3485 138.904 15.8866 138.006 13.1213C135.93 6.51832 131.639 2.90644 123.841 1.24158C120.839 0.592574 114.668 0.282178 104.57 0.282178H95.37V26.6658ZM121.933 9.84802C127.543 11.4282 129.928 15.3787 129.142 21.8124C128.665 25.65 127.179 28.3025 124.682 29.7698C122.494 31.096 120.475 31.3782 112.424 31.5193L104.907 31.6604V20.3168V8.97327L112.284 9.08614C118.904 9.19901 119.858 9.25545 121.933 9.84802ZM227.626 9.31188C232.282 9.62228 235.227 10.2995 238.341 11.8515C242.436 13.8832 245.157 17.354 246.475 22.2921C247.177 24.8881 247.177 32.1119 246.447 34.7079C244.736 41.0569 240.417 45.1485 233.656 46.8698C231.581 47.3777 230.234 47.4906 223.502 47.6035L215.704 47.7446V28.5847C215.704 18.0312 215.789 9.31188 215.901 9.22723C216.153 8.94505 223.026 9.00148 227.626 9.31188ZM290.177 9.31188C292.337 9.45297 295.114 9.84802 296.348 10.1584C300.892 11.3153 304.707 13.8549 306.811 17.1564C309.56 21.502 310.373 28.7257 308.83 34.849C307.596 39.6743 304.819 43.0886 300.359 45.2614C296.264 47.2366 294.749 47.4906 285.914 47.6317L278.256 47.7446V28.3871V9.0297H282.267C284.455 9.0297 288.017 9.17079 290.177 9.31188ZM516.26 9.70693C522.095 11.3436 524.226 14.4193 523.918 20.7119C523.637 26.2426 521.534 29.403 517.382 30.6163C514.942 31.35 511.969 31.5757 505.685 31.604H499.57V20.2886V8.97327L507.088 9.11436C512.894 9.19901 514.942 9.3401 516.26 9.70693ZM174.022 23.5337C176.743 29.7416 178.931 34.849 178.875 34.9054C178.819 34.9619 174.275 34.9619 168.805 34.9337L158.847 34.849L163.419 24.4084C168.749 12.2465 168.861 12.0208 169.001 12.1619C169.057 12.2183 171.301 17.354 174.022 23.5337Z" fill="#061626"/>
<path d="M543.328 5.89751C543.328 10.0738 543.609 14.8426 544.45 24.5777C545.068 31.7733 545.572 37.953 545.572 38.2916C545.572 38.9406 545.629 38.9406 548.77 38.9406H551.996L552.136 37.7272C552.248 37.0782 552.809 30.5035 553.426 23.0822C554.296 12.8673 554.548 8.52177 554.492 5.02276L554.408 0.423257L548.882 0.338604L543.328 0.282168V5.89751Z" fill="#061626"/>
<path d="M3.1697 40.6054C1.1501 41.5366 -0.0280016 44.048 0.532998 46.2208C0.925698 47.6881 1.7672 48.704 3.1136 49.3812C6.3113 51.046 10.07 48.6757 10.098 45.0356C10.098 41.3673 6.5357 39.0817 3.1697 40.6054Z" fill="#061626"/>
</g>
<defs>
<clipPath id="clip0_1_20">
<rect width="561" height="57" fill="white"/>
</clipPath>
</defs>
</svg>
